<svg width="920" height="640" viewBox="0 0 920 640" fill="none" xmlns="http://www.w3.org/2000/svg">
  <defs>
    <linearGradient id="g" x1="60" y1="40" x2="860" y2="600" gradientUnits="userSpaceOnUse">
      <stop stop-color="#2A0E12"/>
      <stop offset="0.45" stop-color="#7A1119"/>
      <stop offset="0.75" stop-color="#F49B1A" stop-opacity="0.20"/>
      <stop offset="1" stop-color="#101A13"/>
    </linearGradient>
    <radialGradient id="r" cx="0" cy="0" r="1" gradientUnits="userSpaceOnUse" gradientTransform="translate(320 200) rotate(60) scale(560 420)">
      <stop stop-color="#FFC96A" stop-opacity="0.24"/>
      <stop offset="1" stop-color="#101A13" stop-opacity="0"/>
    </radialGradient>
  </defs>
  <rect x="0" y="0" width="920" height="640" rx="36" fill="url(#g)"/>
  <rect x="0" y="0" width="920" height="640" rx="36" fill="url(#r)"/>

  <!-- stars -->
  <g opacity="0.35" fill="#FFEFC7">
    <circle cx="160" cy="160" r="2"/>
    <circle cx="230" cy="110" r="1.5"/>
    <circle cx="740" cy="180" r="2"/>
    <circle cx="820" cy="120" r="1.2"/>
    <circle cx="660" cy="90" r="1.6"/>
  </g>

  <!-- plate -->
  <ellipse cx="470" cy="402" rx="250" ry="118" fill="rgba(255,255,255,0.10)"/>
  <ellipse cx="470" cy="402" rx="208" ry="96" fill="rgba(16,26,19,0.58)"/>

  <!-- food silhouette -->
  <path d="M334 420c46-86 134-132 232-132 76 0 136 20 166 62 28 38 20 92-30 120-44 24-96 36-162 36-112 0-194-20-206-86z" fill="rgba(255,255,255,0.16)"/>
  <path d="M370 410c22-54 82-88 154-88 52 0 96 12 126 36 28 22 22 56-14 72-34 16-76 20-122 20-70 0-130-10-144-40z" fill="rgba(255,255,255,0.22)"/>

  <!-- garnish -->
  <g opacity="0.8">
    <circle cx="430" cy="356" r="6" fill="#FFE09A"/>
    <circle cx="512" cy="368" r="5" fill="#FFC96A"/>
    <circle cx="586" cy="388" r="6" fill="#FFEFC7"/>
  </g>
</svg>
