<svg width="920" height="640" viewBox="0 0 920 640" fill="none" xmlns="http://www.w3.org/2000/svg">
  <defs>
    <linearGradient id="g" x1="80" y1="40" x2="820" y2="600" gradientUnits="userSpaceOnUse">
      <stop stop-color="#2F5347"/>
      <stop offset="0.42" stop-color="#3A5F43"/>
      <stop offset="0.7" stop-color="#F49B1A" stop-opacity="0.22"/>
      <stop offset="1" stop-color="#0B1310"/>
    </linearGradient>
    <radialGradient id="r" cx="0" cy="0" r="1" gradientUnits="userSpaceOnUse" gradientTransform="translate(660 180) rotate(130) scale(560 420)">
      <stop stop-color="#FFEFC7" stop-opacity="0.22"/>
      <stop offset="1" stop-color="#0B1310" stop-opacity="0"/>
    </radialGradient>
  </defs>
  <rect x="0" y="0" width="920" height="640" rx="36" fill="url(#g)"/>
  <rect x="0" y="0" width="920" height="640" rx="36" fill="url(#r)"/>

  <!-- geometric tiles -->
  <g opacity="0.16" stroke="#FFE09A" stroke-width="2">
    <path d="M120 140l70-40 70 40-70 40-70-40z"/>
    <path d="M250 210l70-40 70 40-70 40-70-40z"/>
    <path d="M140 300l70-40 70 40-70 40-70-40z"/>
    <path d="M330 330l70-40 70 40-70 40-70-40z"/>
  </g>

  <!-- plate -->
  <ellipse cx="480" cy="402" rx="250" ry="118" fill="rgba(255,255,255,0.10)"/>
  <ellipse cx="480" cy="402" rx="208" ry="96" fill="rgba(11,19,16,0.58)"/>

  <!-- food silhouette -->
  <path d="M350 420c36-86 122-132 216-132 78 0 136 20 168 62 30 39 26 92-18 120-44 28-100 36-170 36-96 0-176-18-196-86z" fill="rgba(255,255,255,0.16)"/>
  <path d="M380 410c20-58 84-92 156-92 56 0 104 14 128 40 22 24 16 56-16 72-34 18-82 22-132 22-66 0-124-10-136-42z" fill="rgba(255,255,255,0.22)"/>

  <!-- spice dots -->
  <g opacity="0.7">
    <circle cx="446" cy="356" r="6" fill="#FFEFC7"/>
    <circle cx="516" cy="372" r="5" fill="#FFC96A"/>
    <circle cx="590" cy="388" r="6" fill="#FFE09A"/>
  </g>
</svg>
